<svg xmlns="http://www.w3.org/2000/svg" width="1024" height="500" viewBox="0 0 1024 500">
  <defs>
    <linearGradient id="bg" x1="0" y1="0" x2="1" y2="1"><stop stop-color="#0B1020"/><stop offset=".6" stop-color="#151D3C"/><stop offset="1" stop-color="#3A2D74"/></linearGradient>
    <linearGradient id="r" x1="0" y1="0" x2="0" y2="1"><stop stop-color="#FF564C"/><stop offset="1" stop-color="#C2101A"/></linearGradient><filter id="sh" x="-35%" y="-35%" width="170%" height="170%"><feDropShadow dx="0" dy="18" stdDeviation="22" flood-color="#000" flood-opacity=".35"/></filter>
  </defs>
  <rect width="1024" height="500" fill="url(#bg)"/>
  <circle cx="900" cy="20" r="300" fill="#5B67F1" opacity=".16"/>
  <circle cx="90" cy="510" r="260" fill="#FF564C" opacity=".10"/>
  <g transform="translate(105 93)">
    <rect width="314" height="314" rx="76" fill="#0A0F1D" stroke="#FFFFFF" stroke-opacity=".09" stroke-width="2"/>
    <g transform="translate(157 157) scale(.2235) translate(-498 -512)"><g filter="url(#sh)"><path d="M280 130h332l152 152v568a48 48 0 0 1-48 48H280a48 48 0 0 1-48-48V178a48 48 0 0 1 48-48z" fill="url(#r)"/></g><path d="M612 130l152 152h-116a36 36 0 0 1-36-36z" fill="#FFC3BE"/><text x="498" y="612" font-family="DejaVu Sans, sans-serif" font-size="210" font-weight="bold" fill="#FFFFFF" text-anchor="middle">PDF</text><rect x="330" y="690" width="336" height="22" rx="11" fill="#FFFFFF" opacity=".6"/><rect x="330" y="742" width="240" height="22" rx="11" fill="#FFFFFF" opacity=".38"/></g>
  </g>
  <text x="485" y="192" fill="#FFFFFF" font-family="DejaVu Sans, sans-serif" font-size="62" font-weight="800" letter-spacing="-1">PDF READER</text>
  <text x="488" y="247" fill="#C9D0E8" font-family="DejaVu Sans, sans-serif" font-size="25">Fast, private and entirely on-device.</text>
  <g transform="translate(488 296)" font-family="DejaVu Sans, sans-serif" font-size="18" font-weight="700"><rect x="0" width="166" height="46" rx="23" fill="#FFFFFF" fill-opacity=".08"/><text x="20" y="30" fill="#DCE2FF">14 languages</text><rect x="180" width="153" height="46" rx="23" fill="#FFFFFF" fill-opacity=".08"/><text x="200" y="30" fill="#DCE2FF">PDF tools</text><rect x="347" width="165" height="46" rx="23" fill="#FFFFFF" fill-opacity=".08"/><text x="367" y="30" fill="#DCE2FF">On-device</text></g>
</svg>
