<svg xmlns="http://www.w3.org/2000/svg" width="1024" height="1024" viewBox="0 0 1024 1024">
  <defs>
    <linearGradient id="red" x1="0" y1="0" x2="1" y2="1">
      <stop stop-color="#FF564C"/>
      <stop offset="1" stop-color="#C2101A"/>
    </linearGradient>
    <linearGradient id="metal" x1="0" y1="0" x2="1" y2="1">
      <stop stop-color="#353A42"/>
      <stop offset="1" stop-color="#111318"/>
    </linearGradient>
  </defs>
  <path d="M292 118h298l166 166v586c0 31-25 56-56 56H292c-31 0-56-25-56-56V174c0-31 25-56 56-56z" fill="url(#metal)" stroke="#F4F5F6" stroke-width="16"/>
  <path d="M590 118l166 166H642c-29 0-52-23-52-52z" fill="#676D76" stroke="#F4F5F6" stroke-width="12" stroke-linejoin="round"/>
  <rect x="304" y="454" width="384" height="220" rx="34" fill="url(#red)"/>
  <text x="496" y="606" font-family="DejaVu Sans, Arial, sans-serif" font-size="138" font-weight="900" fill="#FFFFFF" text-anchor="middle">PDF</text>
  <rect x="330" y="730" width="332" height="22" rx="11" fill="#BCC1C9"/>
  <rect x="330" y="782" width="238" height="22" rx="11" fill="#676D76"/>
</svg>
